<svg width="29" height="29" viewBox="0 0 29 29" fill="none" xmlns="http://www.w3.org/2000/svg">
<g clip-path="url(#clip0_189_10)">
<path d="M2.66041 20.0243C2.27632 20.4107 2.06073 20.9334 2.06073 21.4782C2.06073 22.0231 2.27632 22.5456 2.66041 22.9321L6.97049 27.2422C7.35687 27.6264 7.87955 27.8419 8.42437 27.8419C8.96919 27.8419 9.49187 27.6264 9.87825 27.2422L17.5292 19.5913L10.3113 12.3734L2.66041 20.0243Z" stroke="#FF2F92" stroke-width="2.06224" stroke-linecap="round" stroke-linejoin="round"/>
<path d="M11.4249 13.4868L23.2827 1.62895C23.5728 1.3428 23.9409 1.14895 24.341 1.07188C24.7411 0.994804 25.155 1.03795 25.5305 1.19588C25.9073 1.35059 26.2296 1.61331 26.4571 1.95094C26.6847 2.28856 26.8072 2.686 26.8091 3.09315V7.5682C26.8107 7.83959 26.7588 8.10863 26.6561 8.3599C26.5534 8.61116 26.4022 8.8397 26.211 9.03239L16.498 18.5599" stroke="#FF2F92" stroke-width="2.06224" stroke-linecap="round" stroke-linejoin="round"/>
<path d="M16.5805 8.33151L21.736 13.4871" stroke="#FF2F92" stroke-width="2.06224" stroke-linecap="round" stroke-linejoin="round"/>
</g>
<defs>
<clipPath id="clip0_189_10">
<rect width="28.8713" height="28.8713" fill="white"/>
</clipPath>
</defs>
</svg>
