<svg width="24" height="24" viewBox="0 0 24 24" fill="none" xmlns="http://www.w3.org/2000/svg">
<path fill-rule="evenodd" clip-rule="evenodd" d="M2 1H1V7.71989C1 10.5441 2.11183 13.1651 3.97264 15.1019C3.76952 13.5556 3.86231 11.9534 4.28446 10.3779L6.41192 2.43811L17 5.27518V1H2ZM7.4727 4.27527L5.73346 10.7662C4.50261 15.3598 6.46604 20.2128 10.5448 22.6583L10.7898 22.8052L11.0755 22.8005C15.8305 22.722 19.9574 19.5009 21.1883 14.9073L22.9275 8.41637L7.4727 4.27527ZM9.72452 12.3619C9.83173 11.9618 10.243 11.7243 10.6431 11.8315C11.0432 11.9387 11.2806 12.35 11.1734 12.7501L12.6223 13.1383C12.9439 11.938 12.2316 10.7043 11.0313 10.3826C9.83101 10.061 8.59725 10.7733 8.27563 11.9736L9.72452 12.3619ZM15.4494 14.0431C15.5566 13.643 15.9678 13.4056 16.3679 13.5128C16.768 13.62 17.0055 14.0313 16.8983 14.4314L18.3472 14.8196C18.6688 13.6193 17.9565 12.3855 16.7562 12.0639C15.5559 11.7423 14.3221 12.4546 14.0005 13.6549L15.4494 14.0431Z" fill="#FF2F92"/>
</svg>
