<svg width="20" height="24" viewBox="0 0 20 24" fill="none" xmlns="http://www.w3.org/2000/svg">
<path d="M14.0645 10.9756C12.8312 9.48438 12.2145 8.73879 11.5056 8.85363C10.7969 8.96847 10.4652 9.8677 9.802 11.6661L9.63037 12.1314C9.44187 12.6424 9.34762 12.898 9.16425 13.0862C8.981 13.2745 8.72925 13.3741 8.22575 13.5734L7.7675 13.7548C5.99583 14.456 5.11003 14.8065 5.00901 15.5231C4.90798 16.2397 5.65865 16.8477 7.15996 18.0637L7.54837 18.3783C7.975 18.7239 8.18837 18.8967 8.31175 19.1332C8.43525 19.3696 8.45487 19.6431 8.49425 20.1899L8.53 20.6879C8.66837 22.6124 8.73762 23.5747 9.384 23.9027C10.0305 24.2308 10.826 23.7073 12.4171 22.6604L12.8287 22.3896C13.2809 22.0921 13.507 21.9433 13.7666 21.9013C14.0264 21.8592 14.2902 21.9285 14.8179 22.0674L15.2984 22.1937C17.1555 22.6819 18.0841 22.9261 18.5846 22.4122C19.0851 21.8984 18.8262 20.9668 18.3082 19.1037L18.1742 18.6217C18.027 18.0923 17.9535 17.8276 17.9905 17.5651C18.0275 17.3026 18.1709 17.0721 18.4577 16.6109L18.7189 16.1912C19.7282 14.5682 20.233 13.7569 19.8959 13.1113C19.5587 12.4657 18.6032 12.4134 16.692 12.309L16.1975 12.2818C15.6544 12.2521 15.3829 12.2373 15.146 12.1171C14.9092 11.997 14.734 11.7851 14.3835 11.3613L14.0645 10.9756Z" fill="#FF2F92"/>
<path d="M13.5974 4.00071L13.8261 4.65985C14.0775 5.38385 14.2031 5.74585 14.4476 6.01252C14.6921 6.27918 15.0277 6.42032 15.6989 6.70258L16.31 6.95958C18.6722 7.95291 19.8532 8.44958 19.988 9.46474C20.044 9.88731 19.9034 10.2832 19.5756 10.7257C19.4649 10.6954 19.3582 10.6708 19.258 10.6501C18.6002 10.515 17.7637 10.4694 16.9111 10.4231L16.299 10.3896C16.1812 10.3832 16.0897 10.3781 16.0114 10.3729C15.9594 10.3115 15.8995 10.2392 15.8224 10.1459L15.4279 9.66891C14.8774 9.00302 14.3389 8.3515 13.838 7.8992C13.3039 7.41685 12.411 6.78773 11.209 6.98245C9.99437 7.17924 9.34637 8.07236 8.99687 8.70984C8.67299 9.30046 8.38175 10.0909 8.08675 10.8912L7.87362 11.4695C7.83749 11.5671 7.80862 11.6454 7.78324 11.7126C7.71649 11.7397 7.63899 11.7705 7.54212 11.8088L6.97281 12.0341C6.18421 12.346 5.40615 12.6537 4.82681 12.9906C4.20338 13.353 3.32673 14.0226 3.15291 15.2555C2.98072 16.4768 3.62438 17.3683 4.11161 17.8971C4.47473 18.2912 4.96262 18.7067 5.48355 19.1328C3.52283 19.6703 2.4799 19.8709 1.88715 19.2243C1.21977 18.4963 1.56507 17.1767 2.25568 14.5373L2.43436 13.8546C2.63061 13.1045 2.72873 12.7295 2.6794 12.3576C2.63005 11.9857 2.43882 11.6591 2.05637 11.0059L1.70818 10.4111C0.36231 8.11213 -0.310615 6.96267 0.138822 6.04805C0.588247 5.13344 1.8624 5.05939 4.41071 4.91131L5.06998 4.873C5.79413 4.83092 6.15621 4.80988 6.47194 4.63964C6.78767 4.46941 7.02131 4.16926 7.48859 3.56895L7.91399 3.02241C9.55837 0.909905 10.3806 -0.14636 11.3257 0.0163349C12.2709 0.17903 12.7131 1.45292 13.5974 4.00071Z" fill="#FF2F92"/>
</svg>
